<svg width="170" height="170" viewBox="0 0 170 170" fill="none" xmlns="http://www.w3.org/2000/svg">
<rect x="20" y="20" width="40" height="40" stroke="black" stroke-width="10"/>
<rect x="20" y="100" width="40" height="40" stroke="black" stroke-width="10"/>
<rect x="100" y="20" width="40" height="40" stroke="black" stroke-width="10"/>
<rect x="37.5" y="37.5" width="5" height="5" fill="black" stroke="black" stroke-width="5"/>
<rect x="37.5" y="117.5" width="5" height="5" fill="black" stroke="black" stroke-width="5"/>
<rect x="117.5" y="37.5" width="5" height="5" fill="black" stroke="black" stroke-width="5"/>
<rect x="97.5" y="97.5" width="5" height="5" fill="black" stroke="black" stroke-width="5"/>
<rect x="107.5" y="87.5" width="5" height="5" fill="black" stroke="black" stroke-width="5"/>
<rect x="127.5" y="87.5" width="5" height="5" fill="black" stroke="black" stroke-width="5"/>
<rect x="107.5" y="67.5" width="5" height="5" fill="black" stroke="black" stroke-width="5"/>
<rect x="127.5" y="67.5" width="5" height="5" fill="black" stroke="black" stroke-width="5"/>
<rect x="87.5" y="87.5" width="5" height="5" fill="black" stroke="black" stroke-width="5"/>
<rect x="87.5" y="67.5" width="5" height="5" fill="black" stroke="black" stroke-width="5"/>
<rect x="77.5" y="57.5" width="5" height="5" fill="black" stroke="black" stroke-width="5"/>
<rect x="77.5" y="37.5" width="5" height="5" fill="black" stroke="black" stroke-width="5"/>
<rect x="77.5" y="17.5" width="5" height="5" fill="black" stroke="black" stroke-width="5"/>
<rect x="87.5" y="47.5" width="5" height="5" fill="black" stroke="black" stroke-width="5"/>
<rect x="87.5" y="27.5" width="5" height="5" fill="black" stroke="black" stroke-width="5"/>
<rect x="87.5" y="27.5" width="5" height="5" fill="black" stroke="black" stroke-width="5"/>
<rect x="67.5" y="67.5" width="5" height="5" fill="black" stroke="black" stroke-width="5"/>
<rect x="67.5" y="47.5" width="5" height="5" fill="black" stroke="black" stroke-width="5"/>
<rect x="67.5" y="27.5" width="5" height="5" fill="black" stroke="black" stroke-width="5"/>
<rect x="87.5" y="107.5" width="5" height="5" fill="black" stroke="black" stroke-width="5"/>
<rect x="87.5" y="127.5" width="5" height="5" fill="black" stroke="black" stroke-width="5"/>
<rect x="67.5" y="107.5" width="5" height="5" fill="black" stroke="black" stroke-width="5"/>
<rect x="67.5" y="127.5" width="5" height="5" fill="black" stroke="black" stroke-width="5"/>
<rect x="67.5" y="87.5" width="5" height="5" fill="black" stroke="black" stroke-width="5"/>
<rect x="37.5" y="77.5" width="5" height="5" fill="black" stroke="black" stroke-width="5"/>
<rect x="17.5" y="77.5" width="5" height="5" fill="black" stroke="black" stroke-width="5"/>
<rect x="47.5" y="87.5" width="5" height="5" fill="black" stroke="black" stroke-width="5"/>
<rect x="57.5" y="77.5" width="5" height="5" fill="black" stroke="black" stroke-width="5"/>
<rect x="27.5" y="67.5" width="5" height="5" fill="black" stroke="black" stroke-width="5"/>
<rect x="47.5" y="67.5" width="5" height="5" fill="black" stroke="black" stroke-width="5"/>
<rect x="77.5" y="77.5" width="5" height="5" fill="black" stroke="black" stroke-width="5"/>
<rect x="97.5" y="77.5" width="5" height="5" fill="black" stroke="black" stroke-width="5"/>
<rect x="117.5" y="77.5" width="5" height="5" fill="black" stroke="black" stroke-width="5"/>
<rect x="137.5" y="77.5" width="5" height="5" fill="black" stroke="black" stroke-width="5"/>
<rect x="27.5" y="87.5" width="5" height="5" fill="black" stroke="black" stroke-width="5"/>
<rect x="117.5" y="117.5" width="5" height="5" fill="black" stroke="black" stroke-width="5"/>
<rect x="117.5" y="97.5" width="5" height="5" fill="black" stroke="black" stroke-width="5"/>
<rect x="137.5" y="97.5" width="5" height="5" fill="black" stroke="black" stroke-width="5"/>
<rect x="137.5" y="117.5" width="5" height="5" fill="black" stroke="black" stroke-width="5"/>
<rect x="97.5" y="117.5" width="5" height="5" fill="black" stroke="black" stroke-width="5"/>
<rect x="137.5" y="137.5" width="5" height="5" fill="black" stroke="black" stroke-width="5"/>
<rect x="117.5" y="137.5" width="5" height="5" fill="black" stroke="black" stroke-width="5"/>
<rect x="97.5" y="137.5" width="5" height="5" fill="black" stroke="black" stroke-width="5"/>
<rect x="77.5" y="137.5" width="5" height="5" fill="black" stroke="black" stroke-width="5"/>
<rect x="77.5" y="117.5" width="5" height="5" fill="black" stroke="black" stroke-width="5"/>
<rect x="77.5" y="97.5" width="5" height="5" fill="black" stroke="black" stroke-width="5"/>
</svg>
