<svg width="150" height="150" viewBox="0 0 150 150" fill="none" xmlns="http://www.w3.org/2000/svg">
<rect x="15" y="15" width="40" height="40" stroke="black" stroke-width="10"/>
<rect x="15" y="95" width="40" height="40" stroke="black" stroke-width="10"/>
<rect x="95" y="15" width="40" height="40" stroke="black" stroke-width="10"/>
<rect x="32.5" y="32.5" width="5" height="5" fill="black" stroke="black" stroke-width="5"/>
<rect x="32.5" y="112.5" width="5" height="5" fill="black" stroke="black" stroke-width="5"/>
<rect x="112.5" y="32.5" width="5" height="5" fill="black" stroke="black" stroke-width="5"/>
<rect x="92.5" y="92.5" width="5" height="5" fill="black" stroke="black" stroke-width="5"/>
<rect x="102.5" y="82.5" width="5" height="5" fill="black" stroke="black" stroke-width="5"/>
<rect x="122.5" y="82.5" width="5" height="5" fill="black" stroke="black" stroke-width="5"/>
<rect x="102.5" y="62.5" width="5" height="5" fill="black" stroke="black" stroke-width="5"/>
<rect x="122.5" y="62.5" width="5" height="5" fill="black" stroke="black" stroke-width="5"/>
<rect x="82.5" y="82.5" width="5" height="5" fill="black" stroke="black" stroke-width="5"/>
<rect x="82.5" y="62.5" width="5" height="5" fill="black" stroke="black" stroke-width="5"/>
<rect x="72.5" y="52.5" width="5" height="5" fill="black" stroke="black" stroke-width="5"/>
<rect x="72.5" y="32.5" width="5" height="5" fill="black" stroke="black" stroke-width="5"/>
<rect x="72.5" y="12.5" width="5" height="5" fill="black" stroke="black" stroke-width="5"/>
<rect x="82.5" y="42.5" width="5" height="5" fill="black" stroke="black" stroke-width="5"/>
<rect x="82.5" y="22.5" width="5" height="5" fill="black" stroke="black" stroke-width="5"/>
<rect x="82.5" y="22.5" width="5" height="5" fill="black" stroke="black" stroke-width="5"/>
<rect x="62.5" y="62.5" width="5" height="5" fill="black" stroke="black" stroke-width="5"/>
<rect x="62.5" y="42.5" width="5" height="5" fill="black" stroke="black" stroke-width="5"/>
<rect x="62.5" y="22.5" width="5" height="5" fill="black" stroke="black" stroke-width="5"/>
<rect x="82.5" y="102.5" width="5" height="5" fill="black" stroke="black" stroke-width="5"/>
<rect x="82.5" y="122.5" width="5" height="5" fill="black" stroke="black" stroke-width="5"/>
<rect x="62.5" y="102.5" width="5" height="5" fill="black" stroke="black" stroke-width="5"/>
<rect x="62.5" y="122.5" width="5" height="5" fill="black" stroke="black" stroke-width="5"/>
<rect x="62.5" y="82.5" width="5" height="5" fill="black" stroke="black" stroke-width="5"/>
<rect x="32.5" y="72.5" width="5" height="5" fill="black" stroke="black" stroke-width="5"/>
<rect x="12.5" y="72.5" width="5" height="5" fill="black" stroke="black" stroke-width="5"/>
<rect x="42.5" y="82.5" width="5" height="5" fill="black" stroke="black" stroke-width="5"/>
<rect x="52.5" y="72.5" width="5" height="5" fill="black" stroke="black" stroke-width="5"/>
<rect x="22.5" y="62.5" width="5" height="5" fill="black" stroke="black" stroke-width="5"/>
<rect x="42.5" y="62.5" width="5" height="5" fill="black" stroke="black" stroke-width="5"/>
<rect x="72.5" y="72.5" width="5" height="5" fill="black" stroke="black" stroke-width="5"/>
<rect x="92.5" y="72.5" width="5" height="5" fill="black" stroke="black" stroke-width="5"/>
<rect x="112.5" y="72.5" width="5" height="5" fill="black" stroke="black" stroke-width="5"/>
<rect x="132.5" y="72.5" width="5" height="5" fill="black" stroke="black" stroke-width="5"/>
<rect x="22.5" y="82.5" width="5" height="5" fill="black" stroke="black" stroke-width="5"/>
<rect x="112.5" y="112.5" width="5" height="5" fill="black" stroke="black" stroke-width="5"/>
<rect x="112.5" y="92.5" width="5" height="5" fill="black" stroke="black" stroke-width="5"/>
<rect x="132.5" y="92.5" width="5" height="5" fill="black" stroke="black" stroke-width="5"/>
<rect x="132.5" y="112.5" width="5" height="5" fill="black" stroke="black" stroke-width="5"/>
<rect x="92.5" y="112.5" width="5" height="5" fill="black" stroke="black" stroke-width="5"/>
<rect x="132.5" y="132.5" width="5" height="5" fill="black" stroke="black" stroke-width="5"/>
<rect x="112.5" y="132.5" width="5" height="5" fill="black" stroke="black" stroke-width="5"/>
<rect x="92.5" y="132.5" width="5" height="5" fill="black" stroke="black" stroke-width="5"/>
<rect x="72.5" y="132.5" width="5" height="5" fill="black" stroke="black" stroke-width="5"/>
<rect x="72.5" y="112.5" width="5" height="5" fill="black" stroke="black" stroke-width="5"/>
<rect x="72.5" y="92.5" width="5" height="5" fill="black" stroke="black" stroke-width="5"/>
</svg>
